<svg xmlns="http://www.w3.org/2000/svg" xmlns:xlink="http://www.w3.org/1999/xlink" width="512" height="512" x="0" y="0" viewBox="0 0 64 64" style="enable-background:new 0 0 512 512" xml:space="preserve" class=""><g><path d="M29 27a15.06 15.06 0 0 1-8.18 4.23l-.82.14a17.84 17.84 0 0 0 7.49 12.52L29 45l1.88-1.46A17.83 17.83 0 0 0 38 31.38l-.82-.14A15.06 15.06 0 0 1 29 27Zm.15 11.68a1 1 0 0 1-1.42 0l-2.12-2.12L27 35.15l1.42 1.41L32 33l1.41 1.41Z" fill="#ee842b" opacity="1" data-original="#000000" class=""/><circle cx="6.5" cy="42.25" r="2.75" fill="#ee842b" opacity="1" data-original="#000000" class=""/><path d="M2 47.25v5.85l1.8.9.9 8h3.6l.9-8 1.8-.9v-5.85A2.25 2.25 0 0 0 8.75 45h-4.5A2.25 2.25 0 0 0 2 47.25Z" fill="#ee842b" opacity="1" data-original="#000000" class=""/><circle cx="51.5" cy="47" r="3" fill="#ee842b" opacity="1" data-original="#000000" class=""/><path d="M58.94 46.06 55 50h-7l-3.94-3.94a1.49 1.49 0 0 0-2.23 2L47 54.5V62h9v-7.5l5.17-6.5a1.49 1.49 0 0 0-2.23-2ZM3.08 34.08l2-.16C5 33.29 5 32.64 5 32a23.75 23.75 0 0 1 6.56-16.47l2.08 2.08.94-6.6L8 12l2.16 2.16A25.71 25.71 0 0 0 3 32c0 .69 0 1.39.08 2.08ZM38.36 7.74l-.72 1.86A24.16 24.16 0 0 1 53 32v.41l-2.92-.3 3.44 5.71 4.48-4.9-3-.31V32A26.17 26.17 0 0 0 38.36 7.74ZM19.32 59.32l1.31-2.72a25.94 25.94 0 0 0 19.81-1.24l-.88-1.8A23.75 23.75 0 0 1 29 56a24 24 0 0 1-7.5-1.2l1.29-2.69-6.54 1.29ZM25.72 9.2l.51 5.1a3 3 0 0 0 3 2.7h4.23l1.7 4.12a1.42 1.42 0 0 0 2.64-1l-2-5.43a1 1 0 0 0-.93-.65H32.5V9a2 2 0 0 0-2-2h-2.79a2 2 0 0 0-1.99 2.2Z" fill="#ee842b" opacity="1" data-original="#000000" class=""/><circle cx="29" cy="4.5" r="2.5" fill="#ee842b" opacity="1" data-original="#000000" class=""/><path d="m24.33 9.28-.66-1.88A7 7 0 0 0 26 21a6.93 6.93 0 0 0 3.87-1.17l-1.11-1.66a5 5 0 1 1-4.43-8.89Z" fill="#ee842b" opacity="1" data-original="#000000" class=""/></g></svg>