<svg xmlns="http://www.w3.org/2000/svg" xmlns:xlink="http://www.w3.org/1999/xlink" width="512" height="512" x="0" y="0" viewBox="0 0 64 64" style="enable-background:new 0 0 512 512" xml:space="preserve" class=""><g><path d="M60 45a3 3 0 0 0 3-3V4a3 3 0 0 0-3-3H4a3 3 0 0 0-3 3v38a3 3 0 0 0 3 3h17.6a17.076 17.076 0 0 0 8.176 6.805L26.586 55H23v-3a3 3 0 0 0-3-3H8a3 3 0 0 0-3 3v8a3 3 0 0 0 3 3h12a3 3 0 0 0 3-3v-3h4a1 1 0 0 0 .707-.293l4.221-4.221A16.713 16.713 0 0 0 44.989 50.4l2.6 2.6-.293.293a1 1 0 0 0 0 1.414l6.757 6.757a5.242 5.242 0 1 0 7.414-7.414l-6.757-6.757a1 1 0 0 0-1.414 0l-.296.293L50.414 45zM21 60a1 1 0 0 1-1 1H8a1 1 0 0 1-1-1v-8a1 1 0 0 1 1-1h12a1 1 0 0 1 1 1zM4 43a1 1 0 0 1-1-1V4a1 1 0 0 1 1-1h56a1 1 0 0 1 1 1v38a1 1 0 0 1-1 1h-8.526a16.937 16.937 0 0 0-8.549-22.511L48 15.414V18h2v-5a1 1 0 0 0-1-1h-5v2h2.586l-5.719 5.719a16.912 16.912 0 0 0-4.295-.69l-4.724-7.559A1 1 0 0 0 31 11h-4V8a3 3 0 0 0-3-3H12a3 3 0 0 0-3 3v8a3 3 0 0 0 3 3h12a3 3 0 0 0 3-3v-3h3.446l3.806 6.09a16.971 16.971 0 0 0-11.107 5.818l-1.4-1.573a1 1 0 0 0-.74-.335H21a1 1 0 0 0-.737.324l-11 12 1.474 1.352 10.252-11.184.909 1.024A16.777 16.777 0 0 0 19.281 39H7V12H5v28a1 1 0 0 0 1 1h13.753a16.7 16.7 0 0 0 .773 2zM25 8v8a1 1 0 0 1-1 1H12a1 1 0 0 1-1-1V8a1 1 0 0 1 1-1h12a1 1 0 0 1 1 1zm-4 28a15 15 0 1 1 15 15 15.017 15.017 0 0 1-15-15zm39.05 19.464a3.243 3.243 0 1 1-4.586 4.586L49.414 54 54 49.414zM49 51.586l-2.353-2.353a17.089 17.089 0 0 0 2.586-2.586L51.586 49z" fill="#ee842b" opacity="1" data-original="#000000" class=""/><path d="M36 23a13 13 0 1 0 13 13 13.015 13.015 0 0 0-13-13zm-.436 2.022-6.521 6.521-1.86-2.092a10.976 10.976 0 0 1 8.381-4.429zM36 47a11 11 0 0 1-9.786-6H38v-2H25.426a10.83 10.83 0 0 1 .672-7.759l2.154 2.424a1 1 0 0 0 .719.335H29a1 1 0 0 0 .707-.293l8.486-8.486A11 11 0 0 1 36 47zM13 9h10v2H13zM13 13h10v2H13zM9 53h10v2H9zM9 57h10v2H9z" fill="#ee842b" opacity="1" data-original="#000000" class=""/></g></svg>