<svg xmlns="http://www.w3.org/2000/svg" xmlns:xlink="http://www.w3.org/1999/xlink" width="512" height="512" x="0" y="0" viewBox="0 0 512 512" style="enable-background:new 0 0 512 512" xml:space="preserve" class=""><g><path d="M501 206h-46.149a202.88 202.88 0 0 0-22.903-55.237l32.649-32.648c3.905-3.905 3.905-10.237 0-14.143l-56.568-56.568c-3.905-3.904-10.238-3.904-14.142 0l-32.649 32.649A202.883 202.883 0 0 0 306 57.149V11c0-5.522-4.477-10-10-10h-80c-5.523 0-10 4.478-10 10v46.149a202.893 202.893 0 0 0-55.237 22.903l-32.649-32.649c-3.904-3.904-10.237-3.904-14.142 0l-56.568 56.568c-3.905 3.905-3.905 10.237 0 14.143l32.649 32.648A202.87 202.87 0 0 0 57.149 206H11c-5.523 0-10 4.478-10 10v80c0 5.522 4.477 10 10 10h46.149a202.88 202.88 0 0 0 22.903 55.237l-32.649 32.648c-3.905 3.905-3.905 10.237 0 14.143l56.568 56.568c3.905 3.904 10.238 3.904 14.142 0l32.649-32.649a202.849 202.849 0 0 0 55.237 22.903V501c0 5.522 4.477 10 10 10h80c5.523 0 10-4.478 10-10v-46.149a202.893 202.893 0 0 0 55.237-22.903l32.649 32.649c3.904 3.904 10.237 3.904 14.142 0l56.568-56.568c3.905-3.905 3.905-10.237 0-14.143l-32.649-32.648a202.817 202.817 0 0 0 22.903-55.237H501c5.523 0 10-4.478 10-10v-80c0-5.523-4.477-10.001-10-10.001zm-10 80h-43.483a9.994 9.994 0 0 0-10.417 7.94c-4.717 22.636-13.564 43.955-26.294 63.365a10 10 0 0 0 2.541 13.615l30.036 30.036-42.426 42.426-30.036-30.036c-3.181-4.425-9.193-5.438-13.615-2.54-19.411 12.73-40.73 21.577-63.366 26.293a9.992 9.992 0 0 0-7.94 10.238V491h-60v-43.483a10.001 10.001 0 0 0-7.94-10.417c-22.635-4.716-43.955-13.563-63.366-26.293-4.415-2.896-10.43-1.891-13.615 2.54l-30.036 30.036-42.426-42.426 30.036-30.036a10.001 10.001 0 0 0 2.541-13.615c-12.73-19.41-21.577-40.729-26.294-63.365-1.006-4.828-5.364-8.157-10.238-7.94H21v-60h43.483c4.946.303 9.398-3.053 10.417-7.94 4.717-22.636 13.564-43.955 26.294-63.365a10 10 0 0 0-2.541-13.615l-30.036-30.036 42.426-42.426 30.035 30.034c3.097 4.346 9.118 5.491 13.616 2.542 19.412-12.73 40.731-21.577 63.366-26.293A9.992 9.992 0 0 0 226 64.664V21h60v43.483a10.001 10.001 0 0 0 7.94 10.417c22.635 4.716 43.955 13.563 63.366 26.293 4.5 2.949 10.52 1.803 13.616-2.542l30.035-30.034 42.426 42.426c-21.21 21.15-29.342 29.444-30.525 30.41a10 10 0 0 0-2.052 13.241c12.73 19.41 21.577 40.729 26.294 63.365 1.005 4.828 5.354 8.148 10.238 7.94H491z" fill="#ee842b" opacity="1" data-original="#000000" class=""/><path d="M256 91c-90.671 0-165 73.744-165 165 0 91.378 74.438 165 165 165 92.411 0 165-75.338 165-165 0-89.408-72.318-165-165-165zm14.44 20.718v71.462a10 10 0 0 0 8.345 9.862C291.657 195.202 301 206.258 301 219.33c0 20.608-22.412 33.268-39.99 23.096a9.995 9.995 0 0 0-10.02 0C233.423 252.591 211 239.948 211 219.33c0-13.072 9.343-24.128 22.215-26.288a10.002 10.002 0 0 0 8.345-9.862v-71.462a145.614 145.614 0 0 1 28.88 0zM111 256c0-68.089 47.179-125.357 110.56-140.856v60.372c-18.125 6.605-30.56 23.87-30.56 43.814 0 14.864 6.993 28.117 17.854 36.67-28.789 22.672-21.446 68.038 12.707 80.484v60.372C158.179 381.357 111 324.089 111 256zm130.56 144.282V328.82a10 10 0 0 0-8.345-9.862C220.343 316.798 211 305.742 211 292.67c0-20.608 22.412-33.268 39.99-23.096a9.995 9.995 0 0 0 10.02 0c17.567-10.166 39.99 2.478 39.99 23.096 0 13.072-9.343 24.128-22.215 26.288a10.002 10.002 0 0 0-8.345 9.862v71.462c-9.629.957-19.251.957-28.88 0zm48.88-3.426v-60.372c34.156-12.448 41.493-57.814 12.707-80.484 28.789-22.672 21.446-68.038-12.707-80.484v-60.372C353.821 130.643 401 187.911 401 256s-47.179 125.357-110.56 140.856z" fill="#ee842b" opacity="1" data-original="#000000" class=""/></g></svg>