<svg xmlns="http://www.w3.org/2000/svg" xmlns:xlink="http://www.w3.org/1999/xlink" width="512" height="512" x="0" y="0" viewBox="0 0 512 512" style="enable-background:new 0 0 512 512" xml:space="preserve" class=""><g><path fill-rule="evenodd" d="M404.81 182.08v-61.05c0-3.32-2.69-6-6-6h-10.64l30.05-41.66 30.06 41.66h-10.64c-3.31 0-6 2.69-6 6v99.89c-8.06-14.75-17.5-28.5-26.83-38.84zm-93.83-44.26V86.58c0-3.31 2.69-6 6-6h10.63l-30.05-41.66-30.05 41.66h10.64c3.31 0 6 2.69 6 6v52.67c6.83-1.05 13.76-1.58 20.68-1.58 2.03 0 4.08.05 6.15.15zm-89.5 12.91-30.05-41.67-30.05 41.67h10.64c3.31 0 6 2.68 6 6v62.98c7.45-13.66 16.43-26.26 26.83-37.64v-25.34c0-3.32 2.69-6 6-6zm83.35 28.94c-51.16 0-92.79 41.63-92.79 92.79 0 17.06 4.64 33.63 13.44 48.11l58.1 7.05c15.38 1.87 27.32 13.25 30.63 27.53l78.83-61.76c.85-.67 1.72-1.28 2.61-1.86a92.905 92.905 0 0 0 1.97-19.08c0-51.15-41.63-92.78-92.79-92.78zm-6 130.1v11.92c0 3.31 2.69 6 6 6 3.32 0 6-2.69 6-6v-12.12c11.44-2.63 19.92-11.99 19.92-23.11 0-8.9-4.09-15.85-10.94-18.58l-12.77-5.09c-.09-.04-.18-.07-.27-.1l-10.43-3.57c-4.02-1.38-5.45-5.47-5.45-8.84 0-6.42 6.61-11.84 14.44-11.84 6.25 0 11.93 3.45 13.8 8.4a6 6 0 0 0 7.73 3.49 6.01 6.01 0 0 0 3.49-7.74c-3.05-8.06-10.56-13.9-19.54-15.62v-11.92c0-3.31-2.69-6-6-6s-6 2.69-6 6v12.12c-11.44 2.62-19.93 11.99-19.93 23.11 0 9.44 5.32 17.37 13.55 20.19l10.29 3.53 12.63 5.03c3.14 1.25 3.38 6.01 3.38 7.43 0 6.42-6.61 11.84-14.44 11.84-6.25 0-11.93-3.45-13.8-8.4-1.18-3.1-4.64-4.66-7.73-3.48a5.996 5.996 0 0 0-3.49 7.73c3.07 8.06 10.59 13.9 19.56 15.62zm101.61-6.93-85.99 67.37c-1.65 8.4-6.24 15.87-13.09 21.24-7.56 5.92-16.95 8.55-26.43 7.4l-72.33-8.78a6.012 6.012 0 0 1-5.24-6.68c.4-3.29 3.39-5.63 6.68-5.23l72.33 8.78c6.3.76 12.55-.99 17.58-4.94 5.04-3.95 8.23-9.59 9-15.89 1.58-13.07-7.76-25-20.83-26.59l-95.25-11.56c-.11-.02-.21-.03-.32-.05-46.54-8.24-71.59 26.68-106.24 75.01-5.32 7.42-10.8 15.06-16.6 22.89l85.65 64.46 10.36-13.58c8.98-11.77 21.52-18.57 36.28-19.65l79.38-5.85c9.87-.72 18.1-3.9 25.9-10.01l128.6-100.75c10.36-8.12 12.19-23.16 4.07-33.52-8.11-10.36-23.15-12.18-33.51-4.07z" clip-rule="evenodd" fill="#ee842b" opacity="1" data-original="#000000" class=""/></g></svg>